<svg viewBox="0 0 26 26" fill="none" xmlns="http://www.w3.org/2000/svg">
<path fill-rule="evenodd" clip-rule="evenodd" d="M2.79603 8.19903C2.95008 8.05139 3.15538 7.96927 3.36875 7.96993C3.58212 7.9706 3.78691 8.05401 3.94003 8.2026L13.0323 17.101L22.1789 8.25955C22.3331 8.11215 22.5384 8.03018 22.7517 8.03085C22.9649 8.03152 23.1697 8.11476 23.3229 8.26313C23.3976 8.33531 23.4569 8.42183 23.4973 8.5175C23.5377 8.61317 23.5584 8.71601 23.5581 8.81986C23.5577 8.92371 23.5364 9.02643 23.4954 9.12184C23.4544 9.21726 23.3946 9.30341 23.3195 9.37512L13.5991 18.7708C13.445 18.9184 13.2397 19.0006 13.0264 18.9999C12.813 18.9992 12.6082 18.9158 12.4551 18.7672L2.79256 9.31102C2.71777 9.23891 2.65834 9.15242 2.61785 9.05674C2.57737 8.96106 2.55667 8.85817 2.55699 8.75428C2.55732 8.65039 2.57866 8.54764 2.61974 8.45222C2.66082 8.35679 2.72079 8.27067 2.79603 8.19903V8.19903Z"/>
</svg>
