<svg viewBox="0 0 50 50" fill="none" xmlns="http://www.w3.org/2000/svg">
<path d="M31.5137 12.5391L41.3086 22.793C41.8945 23.3594 42.1875 24.1309 42.1875 24.9805C42.1875 25.8301 41.8945 26.5918 41.3086 27.168L31.5137 37.4609C30.3516 38.6816 28.457 38.6816 27.2949 37.4609C26.1328 36.2402 26.1328 34.2676 27.2949 33.0469L32.002 28.125H10.8105C9.15039 28.125 7.8125 26.7285 7.8125 25C7.8125 23.2715 9.15039 21.875 10.8008 21.875H31.9922L27.2852 16.9531C26.123 15.7324 26.123 13.7598 27.2852 12.5391C28.457 11.3184 30.3418 11.3184 31.5137 12.5391Z"/>
</svg>
