<svg viewBox="0 0 50 50" fill="none" xmlns="http://www.w3.org/2000/svg">
<path d="M18.4863 12.5391L8.69141 22.793C8.10547 23.3594 7.8125 24.1309 7.8125 24.9805C7.8125 25.8301 8.10547 26.5918 8.69141 27.168L18.4863 37.4609C19.6484 38.6816 21.543 38.6816 22.7051 37.4609C23.8672 36.2402 23.8672 34.2676 22.7051 33.0469L18.0078 28.125H39.1992C40.8496 28.125 42.1875 26.7285 42.1875 25C42.1875 23.2715 40.8496 21.875 39.1992 21.875H18.0078L22.7148 16.9531C23.877 15.7324 23.877 13.7598 22.7148 12.5391C21.543 11.3184 19.6582 11.3184 18.4863 12.5391Z"/>
</svg>
